<svg width="66" height="44" viewBox="0 0 66 44" fill="none" xmlns="http://www.w3.org/2000/svg">
<path d="M36.812 37.3848C36.7283 37.573 36.6656 37.7821 36.5192 37.9285C36.1847 38.3048 35.7665 38.5975 35.4738 38.9948C34.8256 39.8939 35.0347 40.8348 35.9338 41.462C36.8329 42.0684 37.8574 42.3402 38.9028 42.4656C40.5546 42.6956 42.1855 42.5284 43.6909 41.7547C44.9664 41.0857 45.9072 40.103 46.1581 38.6184C46.1581 38.5557 46.2209 38.5139 46.3463 38.4721C46.3463 38.6603 46.3463 38.8484 46.3045 39.0366C45.8445 41.0648 44.4436 42.1729 42.5619 42.7584C40.5128 43.3856 38.4638 43.302 36.4774 42.5075C36.0593 42.3402 35.6411 42.1311 35.3274 41.8384C34.9929 41.5247 34.7002 41.4829 34.2611 41.5666C31.9402 42.0056 29.6194 41.7547 27.2985 41.5247C23.8695 41.1902 20.545 40.2702 17.2414 39.3503C16.2169 39.0575 15.1297 38.953 14.0842 38.7857C13.8333 38.7439 13.6033 38.7021 13.4361 39.0366C13.1433 39.6848 12.5579 39.9148 11.8679 39.9148C9.94431 39.9148 8.02071 39.9148 6.11802 39.9148C5.55349 39.9148 4.96804 39.9357 4.40351 39.9148C2.98172 39.8521 2.2081 39.0784 2.2081 37.6566C2.2081 37.0712 2.29173 36.4648 2.50082 35.9421C3.19081 34.2067 2.96081 32.5758 2.06174 30.9659C1.28812 29.5441 0.828125 27.9968 0.828125 26.3241C0.828125 25.1114 1.14176 24.0033 1.76902 22.9787C1.9781 22.6442 2.18719 22.2888 2.41718 21.9751C3.37898 20.6997 3.73443 19.2988 3.37898 17.7307C3.19081 16.9152 3.31626 16.0998 3.75534 15.3889C4.17351 14.6989 4.77987 14.3435 5.5953 14.3853C7.64436 14.5107 9.69341 14.5944 11.7425 14.6989C12.0979 14.6989 12.4743 14.6989 12.8297 14.8035C13.227 14.9289 13.7079 15.0962 13.9379 15.4098C14.2724 15.8907 14.6488 15.8489 15.0878 15.7862C17.4714 15.5143 19.6668 14.6571 21.8832 13.8207C25.354 12.5035 28.8458 11.249 32.4839 10.4963C34.5747 10.0572 36.5192 9.19993 38.401 8.21722C39.1956 7.81995 40.0737 7.54814 40.931 7.38087C42.1228 7.12997 42.9173 7.6945 43.0846 8.8863C43.21 9.68083 43.21 10.5172 43.0218 11.2908C42.3737 13.9462 40.8264 15.9116 38.3174 17.0616C37.1883 17.5843 36.0593 18.107 34.9511 18.6507C34.5538 18.8388 34.2193 19.1315 33.8429 19.3615C33.8429 19.4034 33.8848 19.4452 33.9057 19.487C34.8047 19.4452 35.7038 19.4034 36.6238 19.3406C38.4428 19.2361 40.241 19.0897 42.06 19.0479C48.1236 18.8597 54.1871 18.7134 60.2506 18.567C60.7524 18.567 61.2542 18.5879 61.7351 18.6925C63.2196 19.0061 63.8678 20.2606 63.366 21.6824C63.0315 22.6233 62.3415 23.2297 61.4842 23.6687C59.9788 24.4424 58.3688 24.9023 56.7379 25.2578C56.6752 25.2578 56.6125 25.2996 56.5498 25.4042C57.2397 25.4042 57.9297 25.4042 58.6197 25.4042C60.1461 25.4042 61.6515 25.4042 63.1778 25.446C63.4287 25.446 63.6796 25.5296 63.9305 25.6341C65.4778 26.2196 65.9169 27.7877 64.8087 29.0005C64.286 29.5441 63.6169 30.0041 62.9269 30.3177C61.1706 31.154 59.2679 31.4677 57.3443 31.5722C53.0998 31.8231 48.8554 31.9695 44.6109 32.2204C42.4991 32.3458 40.4083 32.534 38.3174 32.7431C37.481 32.8267 36.6865 33.0776 36.0802 33.7049C34.972 34.834 35.3065 36.2558 36.8329 36.653C37.7529 36.883 38.6937 36.9667 39.6555 37.0294C42.3528 37.2176 45.0082 37.1339 47.559 36.0676C47.8936 35.9212 48.2281 35.7749 48.5417 35.5867C50.0053 34.7503 50.2563 33.914 49.5035 32.4713C49.5454 32.4295 49.5663 32.4086 49.6081 32.3667C49.7963 32.5549 50.0263 32.7013 50.1308 32.9313C50.4653 33.6213 50.4026 34.3531 49.9217 34.9385C49.5454 35.3985 49.0854 35.8167 48.5836 36.1094C46.9109 37.0712 45.05 37.573 43.1473 37.6148C41.1819 37.6566 39.2165 37.5312 37.251 37.4685C37.1047 37.4685 36.9583 37.3848 36.812 37.343C35.8711 37.1339 35.1393 36.653 34.8675 35.6912C34.5747 34.7294 34.9511 33.914 35.5993 33.2449C35.892 32.9313 36.2683 32.6595 36.6447 32.5131C37.251 32.2831 37.8992 32.074 38.5265 32.0113C41.0146 31.8022 43.4818 31.6349 45.97 31.4886C49.8799 31.2586 53.8107 31.0704 57.7206 30.8404C59.4142 30.7359 61.0869 30.4222 62.6342 29.6904C63.2614 29.3977 63.8887 28.9795 64.3487 28.4986C65.1014 27.725 64.8296 26.7423 63.8469 26.3241C63.4496 26.1569 63.0105 26.0732 62.5924 26.0732C60.6479 26.0523 58.6824 26.0732 56.7379 26.0732C54.0407 26.0941 51.3435 26.1569 48.6463 26.1987C47.3081 26.1987 45.9491 26.1987 44.6109 26.1987C44.5064 26.1987 44.4227 26.2196 44.3182 26.2405V27.035C43.8582 26.8678 43.8582 26.0523 44.3182 25.0278C44.36 25.216 44.4018 25.3623 44.4227 25.5087C45.4263 25.5087 46.4091 25.5087 47.3918 25.5087C50.3817 25.5505 53.3298 25.3205 56.257 24.756C57.9506 24.4214 59.6233 23.9615 61.1706 23.1878C61.8188 22.8533 62.4042 22.4142 62.7387 21.7451C63.3033 20.5952 62.7806 19.5079 61.5051 19.2988C61.0869 19.2152 60.6479 19.1943 60.2088 19.2152C58.7034 19.2152 57.1979 19.2361 55.6925 19.2779C52.5562 19.3406 49.399 19.3825 46.2627 19.487C42.2064 19.5915 38.1501 19.7588 34.0938 19.8634C33.5293 19.8634 33.2784 20.1352 33.1111 20.5743C32.7975 21.3897 32.5048 22.226 32.1493 23.0206C31.2084 25.0696 29.7657 26.7423 28.0094 28.1223C27.9049 28.2059 27.7376 28.2059 27.6121 28.2477C27.5912 28.2059 27.5494 28.1432 27.5285 28.1014C27.654 27.9759 27.7794 27.8505 27.9049 27.725C29.9121 25.8851 31.4175 23.7315 32.1493 21.097C32.5675 19.6543 33.362 18.5461 34.7211 17.8979C35.7247 17.417 36.7492 16.9361 37.7738 16.4971C40.1574 15.4516 41.6628 13.6535 42.311 11.1653C42.4782 10.4963 42.4782 9.72265 42.3946 9.03266C42.3109 8.25904 41.9137 7.96631 41.1819 8.11268C40.3037 8.27994 39.3837 8.53085 38.5892 8.94902C36.6029 9.97355 34.5538 10.8099 32.3584 11.2699C29.4312 11.8762 26.5876 12.8171 23.7859 13.8417C21.9668 14.5107 20.1687 15.2216 18.3287 15.7653C17.0951 16.1416 15.8197 16.288 14.5233 16.5389C15.1715 23.7524 15.9451 31.0495 13.7915 38.2003C15.1088 38.3884 16.3842 38.493 17.6387 38.7857C20.2941 39.3921 22.8659 40.2911 25.6049 40.6257C27.8631 40.9184 30.1212 41.2948 32.4211 41.1693C33.1111 41.1275 33.822 41.0229 34.512 40.9393C34.3447 39.0366 35.1184 37.8657 36.7911 37.4057L36.812 37.3848Z" fill="#080A1E"/>
<path d="M27.9471 4.85074C27.9471 4.85074 28.1143 5.01801 28.1771 5.10165C28.888 5.9589 29.6198 6.79525 30.3307 7.6525C30.3934 7.73614 30.4143 7.8825 30.4352 7.98705C30.3307 7.98705 30.2052 7.98704 30.1216 7.92432C29.1598 7.21342 28.3652 6.35617 27.8007 5.31073C27.738 5.18528 27.8007 4.9971 27.8007 4.85074C27.8425 4.85074 27.9053 4.85074 27.9471 4.82983V4.85074Z" fill="#080A1E"/>
<path d="M40.2618 0C40.0109 1.60997 39.7809 3.09449 39.5509 4.579C39.07 3.99356 39.5091 0.710895 40.2618 0Z" fill="#080A1E"/>
<path d="M33.6544 1.60938C34.1353 1.71392 35.1598 5.24749 34.9089 5.79111C34.4908 4.39023 34.0726 3.01026 33.6544 1.60938Z" fill="#080A1E"/>
<path d="M46.9104 3.13616C46.8477 3.26161 46.8268 3.36616 46.7641 3.44979C46.3041 4.03523 45.865 4.62068 45.405 5.18521C45.3423 5.24794 45.2168 5.26885 45.1332 5.33157C45.1332 5.24794 45.0705 5.14339 45.1123 5.10158C45.635 4.4325 46.1786 3.76342 46.7222 3.11525C46.7222 3.09434 46.8059 3.11525 46.9313 3.11525L46.9104 3.13616Z" fill="#080A1E"/>
<path d="M28.1978 36.9661C30.8741 33.9343 32.6722 30.4635 33.6758 26.5745C32.9231 30.5889 31.125 34.0807 28.4277 37.0915C28.3441 37.0497 28.2605 37.0079 28.1978 36.9452V36.9661Z" fill="#080A1E"/>
<path d="M36.394 26.282C36.0385 28.2892 35.4949 30.2546 34.5958 32.1364C35.2022 30.1919 35.7876 28.2265 36.394 26.282Z" fill="#080A1E"/>
</svg>
