<svg width="26" height="27" viewBox="0 0 26 27" fill="none" xmlns="http://www.w3.org/2000/svg">
<g filter="url(#filter0_i_1414_6163)">
<path d="M23.1692 21.3098L18.7963 17.3742C17.9217 18.2488 16.6098 19.9979 13.1115 19.9979C9.61323 19.9979 8.30136 18.2488 6.9895 16.9369L10.0505 13.4386H0.430176V23.9335L3.0539 21.3098C4.36577 22.6216 8.21391 26.12 13.1115 26.12C18.0092 26.12 21.7115 22.7674 23.1692 21.3098Z" fill="#B5B6B5"/>
</g>
<g filter="url(#filter1_i_1414_6163)">
<path d="M12.6742 10.8149L9.61323 7.31656C6.55221 9.06571 5.96916 12.1267 6.11493 13.4386H0.430176C0.430176 12.564 0.514456 9.72958 1.30475 7.75384C2.17933 5.5674 4.07425 4.10978 5.24035 3.38096L2.61662 0.319946H12.6742L12.6742 10.8149Z" fill="#4D8DF4"/>
</g>
<g filter="url(#filter2_i_1414_6163)">
<path d="M16.1726 13.0012L19.2336 9.94029C17.4845 6.87927 14.1319 6.44189 12.6743 6.44191V0.319946C13.9862 0.319953 17.4845 0.757234 19.2336 2.0691C20.8655 3.29301 22.1489 4.69272 22.7319 5.5673L25.793 2.94357V13.0012H16.1726Z" fill="#1B3CAC"/>
</g>
<path d="M16.1726 13.0012L19.2336 9.94029C17.4845 6.87927 14.1319 6.44189 12.6743 6.44191V0.319946C13.9862 0.319953 17.4845 0.757234 19.2336 2.0691C20.8655 3.29301 22.1489 4.69272 22.7319 5.5673L25.793 2.94357V13.0012H16.1726Z" stroke="black" stroke-width="0.172"/>
<defs>
<filter id="filter0_i_1414_6163" x="0.430176" y="12.5786" width="23.5988" height="13.5414" filterUnits="userSpaceOnUse" color-interpolation-filters="sRGB">
<feFlood flood-opacity="0" result="BackgroundImageFix"/>
<feBlend mode="normal" in="SourceGraphic" in2="BackgroundImageFix" result="shape"/>
<feColorMatrix in="SourceAlpha" type="matrix" values="0 0 0 0 0 0 0 0 0 0 0 0 0 0 0 0 0 0 127 0" result="hardAlpha"/>
<feOffset dx="0.86" dy="-0.86"/>
<feGaussianBlur stdDeviation="0.43"/>
<feComposite in2="hardAlpha" operator="arithmetic" k2="-1" k3="1"/>
<feColorMatrix type="matrix" values="0 0 0 0 1 0 0 0 0 1 0 0 0 0 1 0 0 0 0.2 0"/>
<feBlend mode="normal" in2="shape" result="effect1_innerShadow_1414_6163"/>
</filter>
<filter id="filter1_i_1414_6163" x="0.430176" y="-0.540054" width="13.1041" height="13.9787" filterUnits="userSpaceOnUse" color-interpolation-filters="sRGB">
<feFlood flood-opacity="0" result="BackgroundImageFix"/>
<feBlend mode="normal" in="SourceGraphic" in2="BackgroundImageFix" result="shape"/>
<feColorMatrix in="SourceAlpha" type="matrix" values="0 0 0 0 0 0 0 0 0 0 0 0 0 0 0 0 0 0 127 0" result="hardAlpha"/>
<feOffset dx="0.86" dy="-0.86"/>
<feGaussianBlur stdDeviation="0.43"/>
<feComposite in2="hardAlpha" operator="arithmetic" k2="-1" k3="1"/>
<feColorMatrix type="matrix" values="0 0 0 0 0 0 0 0 0 0 0 0 0 0 0 0 0 0 0.1 0"/>
<feBlend mode="normal" in2="shape" result="effect1_innerShadow_1414_6163"/>
</filter>
<filter id="filter2_i_1414_6163" x="12.5884" y="-0.626113" width="14.1505" height="13.7133" filterUnits="userSpaceOnUse" color-interpolation-filters="sRGB">
<feFlood flood-opacity="0" result="BackgroundImageFix"/>
<feBlend mode="normal" in="SourceGraphic" in2="BackgroundImageFix" result="shape"/>
<feColorMatrix in="SourceAlpha" type="matrix" values="0 0 0 0 0 0 0 0 0 0 0 0 0 0 0 0 0 0 127 0" result="hardAlpha"/>
<feOffset dx="0.86" dy="-0.86"/>
<feGaussianBlur stdDeviation="0.43"/>
<feComposite in2="hardAlpha" operator="arithmetic" k2="-1" k3="1"/>
<feColorMatrix type="matrix" values="0 0 0 0 0 0 0 0 0 0 0 0 0 0 0 0 0 0 0.1 0"/>
<feBlend mode="normal" in2="shape" result="effect1_innerShadow_1414_6163"/>
</filter>
</defs>
</svg>
