<svg width="20" height="19" viewBox="0 0 20 19" fill="none" xmlns="http://www.w3.org/2000/svg">
<path d="M0.398827 13.8844L16.6262 0.724226C16.7945 0.587752 16.9649 0.601338 17.0948 0.761589L19.1557 3.30271C20.4553 4.90522 20.198 6.89753 18.5392 8.24278L7.48053 17.2112C5.72557 18.6344 3.64333 18.4256 2.32515 16.8002L0.338606 14.3506C0.208645 14.1904 0.230543 14.0208 0.398827 13.8844ZM15.9104 5.09965L4.82775 14.0875C4.58734 14.2825 4.54355 14.6216 4.74777 14.8734C4.952 15.1253 5.26333 15.2143 5.55182 14.9804L16.6345 5.99248C16.8749 5.79751 16.9187 5.4584 16.6959 5.18368C16.5103 4.95475 16.1989 4.86569 15.9104 5.09965Z" fill="#151515"/>
</svg>
