<svg width="21" height="19" viewBox="0 0 21 19" fill="none" xmlns="http://www.w3.org/2000/svg">
<path d="M0.933983 14.0301L17.1613 0.869978C17.3296 0.733504 17.5 0.74709 17.63 0.907341L19.6908 3.44846C20.9904 5.05097 20.7331 7.04328 19.0743 8.38854L8.01568 17.3569C6.26072 18.7802 4.17849 18.5713 2.86031 16.9459L0.873762 14.4964C0.743801 14.3361 0.7657 14.1666 0.933983 14.0301ZM16.4456 5.2454L5.36291 14.2333C5.1225 14.4282 5.0787 14.7674 5.28293 15.0192C5.48715 15.271 5.79849 15.3601 6.08697 15.1261L17.1697 6.13823C17.4101 5.94326 17.4539 5.60415 17.2311 5.32943C17.0454 5.1005 16.7341 5.01144 16.4456 5.2454Z" fill="#151515"/>
</svg>
