<svg width="21" height="18" viewBox="0 0 21 18" fill="none" xmlns="http://www.w3.org/2000/svg">
<path d="M4.18374 17.8031L20.4111 4.64293C20.5794 4.50645 20.6013 4.33689 20.4713 4.17664L18.4105 1.63552C17.1109 0.0330114 15.1084 -0.126625 13.4496 1.21863L2.39096 10.187C0.636 11.6103 0.410346 13.6907 1.72852 15.3161L3.71507 17.7657C3.84503 17.9259 4.01546 17.9395 4.18374 17.8031ZM15.9822 4.43975L4.89949 13.4276C4.65908 13.6226 4.31823 13.5954 4.11401 13.3436C3.90979 13.0918 3.88694 12.7688 4.17542 12.5348L15.2581 3.54692C15.4985 3.35196 15.8394 3.37913 16.0621 3.65385C16.2478 3.88278 16.2707 4.20579 15.9822 4.43975Z" fill="#151515"/>
</svg>
